<svg class="diagram-root" style="background: #f5f6f6" xmlns="http://www.w3.org/2000/svg" xmlns:xlink="http://www.w3.org/1999/xlink"><style>.diagram-root { font-family: "Helvetica Neue", sans-serif; font-size: 12px; } .t { overflow: visible; } .t-bg { y: 40; fill: #fff;   } .th { fill: #005aa0;   } .tht { fill: #fff; font-size: 14px;  } .tf { fill: #323c46; overflow: visible; } .tf.pk { fill: #005aa0; font-weight: bold; } .tf.fk { font-weight: bold; } .ty { fill: #adb1b5; font-weight: normal; text-anchor: end; } .r { fill: transparent; stroke: #c3c3c3; stroke-width: 1; } .l { stroke: 1; } .i { fill: #c2c7ce; stroke: #c2c7ce; } .i.ix { fill: #afb3b6; stroke: #000; } .fa { fill: transparent; overflow: visible; } .fa .bg.hover { fill: #f7f7f7; } .c { cy: 12; r: 4; stroke: #d2d2dc; fill: #d2d2dc; } .hr { fill: transparent; stroke: #323c46; stroke-opacity: 0.035; stroke-width: 13; } .dc { stroke: #fa5a3c; fill: #fa5a3c; } .x { stroke: white; stroke-width: 1; } .hl .th { fill: #1b9bff; } .hl .tht {  } .fhl .bg { fill: #e7f4ff; } .fhls .bg {  } .r.hl { stroke: #1b9bff; } .dim { opacity: 0.25; }</style><g class="drawing-wrapper" transform="translate(34.732727272727274, 76.36818181818181) scale(1,1)"><g class="rs"><path d="M 387.76 10.630000000000003 m -1, 0 a 1,1 0 1,0 2,0 a 1,1 0 1,0 -2,0 M 387.76 10.630000000000003 m -0.5, 0 a 0.5,0.5 0 1,0 1,0 a 0.5,0.5 0 1,0 -1,0  M387.76 10.630000000000003 L387.76 10.630000000000003 399.76 10.630000000000003 M393.76 16.630000000000003 L393.76 16.630000000000003 393.76 4.630000000000003 M399.76 10.630000000000003 Q 443.42 10.630000000000003, 487.07 100.64 T 574.37 190.64 M 586.37 190.64 m -1, 0 a 1,1 0 1,0 2,0 a 1,1 0 1,0 -2,0 M 586.37 190.64 m -0.5, 0 a 0.5,0.5 0 1,0 1,0 a 0.5,0.5 0 1,0 -1,0  M586.37 190.64 L586.37 190.64 574.37 190.64 M580.37 196.64 L580.37 196.64 580.37 184.64" id="h1499413058" class="r"></path><path d="M 215.45 35.63 m -1, 0 a 1,1 0 1,0 2,0 a 1,1 0 1,0 -2,0 M 215.45 35.63 m -0.5, 0 a 0.5,0.5 0 1,0 1,0 a 0.5,0.5 0 1,0 -1,0  M215.45 35.63 L215.45 35.63 203.45 35.63 M 215.45 41.63 m -1, 0 a 1,1 0 1,0 2,0 a 1,1 0 1,0 -2,0 M 215.45 41.63 m -0.5, 0 a 0.5,0.5 0 1,0 1,0 a 0.5,0.5 0 1,0 -1,0  M215.45 41.63 L215.45 41.63 208.45 35.63 215.45 29.630000000000003 M 215.45 29.630000000000003 m -1, 0 a 1,1 0 1,0 2,0 a 1,1 0 1,0 -2,0 M 215.45 29.630000000000003 m -0.5, 0 a 0.5,0.5 0 1,0 1,0 a 0.5,0.5 0 1,0 -1,0  M203.45 35.63 C -211.63799999999998 35.63, -74.73 153.36, -24.73 153.36 M -12.73 153.36 m -1, 0 a 1,1 0 1,0 2,0 a 1,1 0 1,0 -2,0 M -12.73 153.36 m -0.5, 0 a 0.5,0.5 0 1,0 1,0 a 0.5,0.5 0 1,0 -1,0  M-12.73 153.36 L-12.73 153.36 -24.73 153.36 M-18.73 159.36 L-18.73 159.36 -18.73 147.36" id="h124672612" class="r"></path><path d="M 228.18 169.73000000000002 m -1, 0 a 1,1 0 1,0 2,0 a 1,1 0 1,0 -2,0 M 228.18 169.73000000000002 m -0.5, 0 a 0.5,0.5 0 1,0 1,0 a 0.5,0.5 0 1,0 -1,0  M228.18 169.73000000000002 L228.18 169.73000000000002 216.18 169.73000000000002 M 228.18 175.73000000000002 m -1, 0 a 1,1 0 1,0 2,0 a 1,1 0 1,0 -2,0 M 228.18 175.73000000000002 m -0.5, 0 a 0.5,0.5 0 1,0 1,0 a 0.5,0.5 0 1,0 -1,0  M228.18 175.73000000000002 L228.18 175.73000000000002 221.18 169.73000000000002 228.18 163.73000000000002 M 228.18 163.73000000000002 m -1, 0 a 1,1 0 1,0 2,0 a 1,1 0 1,0 -2,0 M 228.18 163.73000000000002 m -0.5, 0 a 0.5,0.5 0 1,0 1,0 a 0.5,0.5 0 1,0 -1,0  M216.18 169.73000000000002 Q 199.3 169.73000000000002, 182.42 161.55 T 148.66 153.36 M 136.66 153.36 m -1, 0 a 1,1 0 1,0 2,0 a 1,1 0 1,0 -2,0 M 136.66 153.36 m -0.5, 0 a 0.5,0.5 0 1,0 1,0 a 0.5,0.5 0 1,0 -1,0  M136.66 153.36 L136.66 153.36 148.66 153.36 M142.66 159.36 L142.66 159.36 142.66 147.36" id="h1757665889" class="r"></path><path d="M 388.04 194.73000000000002 m -1, 0 a 1,1 0 1,0 2,0 a 1,1 0 1,0 -2,0 M 388.04 194.73000000000002 m -0.5, 0 a 0.5,0.5 0 1,0 1,0 a 0.5,0.5 0 1,0 -1,0  M388.04 194.73000000000002 L388.04 194.73000000000002 400.04 194.73000000000002 M394.04 200.73000000000002 L394.04 200.73000000000002 394.04 188.73000000000002 M400.04 194.73000000000002 Q 443.63 194.73000000000002, 487.21 192.69 T 574.37 190.64 M 586.37 190.64 m -1, 0 a 1,1 0 1,0 2,0 a 1,1 0 1,0 -2,0 M 586.37 190.64 m -0.5, 0 a 0.5,0.5 0 1,0 1,0 a 0.5,0.5 0 1,0 -1,0  M586.37 190.64 L586.37 190.64 574.37 190.64 M580.37 196.64 L580.37 196.64 580.37 184.64" id="h1672048976" class="r"></path><path d="M 586.37 215.64 m -1, 0 a 1,1 0 1,0 2,0 a 1,1 0 1,0 -2,0 M 586.37 215.64 m -0.5, 0 a 0.5,0.5 0 1,0 1,0 a 0.5,0.5 0 1,0 -1,0  M586.37 215.64 L586.37 215.64 574.37 215.64 M 586.37 221.64 m -1, 0 a 1,1 0 1,0 2,0 a 1,1 0 1,0 -2,0 M 586.37 221.64 m -0.5, 0 a 0.5,0.5 0 1,0 1,0 a 0.5,0.5 0 1,0 -1,0  M586.37 221.64 L586.37 221.64 579.37 215.64 586.37 209.64 M 586.37 209.64 m -1, 0 a 1,1 0 1,0 2,0 a 1,1 0 1,0 -2,0 M 586.37 209.64 m -0.5, 0 a 0.5,0.5 0 1,0 1,0 a 0.5,0.5 0 1,0 -1,0  M574.37 215.64 Q 466.12 215.64, 357.86 315.87 T 141.34 416.09 M 129.34 416.09 m -1, 0 a 1,1 0 1,0 2,0 a 1,1 0 1,0 -2,0 M 129.34 416.09 m -0.5, 0 a 0.5,0.5 0 1,0 1,0 a 0.5,0.5 0 1,0 -1,0  M129.34 416.09 L129.34 416.09 141.34 416.09 M135.34 422.09 L135.34 422.09 135.34 410.09" id="h1537058300" class="r"></path><path d="M 90.23 287.91999999999996 m -1, 0 a 1,1 0 1,0 2,0 a 1,1 0 1,0 -2,0 M 90.23 287.91999999999996 m -0.5, 0 a 0.5,0.5 0 1,0 1,0 a 0.5,0.5 0 1,0 -1,0  M90.23 287.91999999999996 L90.23 287.91999999999996 102.23 287.91999999999996 M96.23 293.91999999999996 L96.23 293.91999999999996 96.23 281.91999999999996 M102.23 287.91999999999996 Q 220.27 287.91999999999996, 338.3 239.28 T 574.37 190.64 M 586.37 190.64 m -1, 0 a 1,1 0 1,0 2,0 a 1,1 0 1,0 -2,0 M 586.37 190.64 m -0.5, 0 a 0.5,0.5 0 1,0 1,0 a 0.5,0.5 0 1,0 -1,0  M586.37 190.64 L586.37 190.64 574.37 190.64 M580.37 196.64 L580.37 196.64 580.37 184.64" id="h3177548053" class="r"></path></g><g class="hrs"></g><g class="ts"><svg width="149.39" height="100" x="-12.73" y="96.36" id="h475896179" class="t"><rect height="40" width="149.39" class="th"></rect><text x="13" y="25" class="tht">departments</text><rect height="60" width="149.39" class="t-bg" y="40"></rect><text x="13" y="61" class="tf pk">dept_no<tspan x="136.39" class="ty">varchar</tspan></text><path d="M7,14A2,2 0 0,1 5,12A2,2 0 0,1 7,10A2,2 0 0,1 9,12A2,2 0 0,1 7,14M12.65,10C11.83,7.67 9.61,6 7, 6A6, 6 0 0, 0 1, 12A6, 6 0 0, 0 7, 18C9.61, 18 11.83, 16.33 12.65, 14H17V18H21V14H23V10H12.65Z" class="i pk" transform="translate(76.37632812499999, 48) scale(0.65)"></path><text x="13" y="86" class="tf">dept_name<tspan x="136.39" class="ty">varchar</tspan></text></svg><svg width="172.31" height="100" x="215.45" y="-46.37" id="h3682426126" class="t"><rect height="40" width="172.31" class="th"></rect><text x="13" y="25" class="tht">department_employees</text><rect height="60" width="172.31" class="t-bg" y="40"></rect><text x="13" y="61" class="tf fk">emp_no<tspan x="159.31" class="ty">int</tspan></text><text x="13" y="86" class="tf fk">dept_no<tspan x="159.31" class="ty">varchar</tspan></text></svg><svg width="159.86" height="100" x="228.18" y="112.73" id="h2392569220" class="t"><rect height="40" width="159.86" class="th"></rect><text x="13" y="25" class="tht">department_manager</text><rect height="60" width="159.86" class="t-bg" y="40"></rect><text x="13" y="61" class="tf fk">dept_no<tspan x="146.86" class="ty">varchar</tspan></text><text x="13" y="86" class="tf fk">emp_no<tspan x="146.86" class="ty">int</tspan></text></svg><svg width="150.72" height="225" x="586.37" y="133.64" id="h1639608377" class="t"><rect height="40" width="150.72" class="th"></rect><text x="13" y="25" class="tht">employees</text><rect height="185" width="150.72" class="t-bg" y="40"></rect><text x="13" y="61" class="tf pk">emp_no<tspan x="137.72" class="ty">int</tspan></text><path d="M7,14A2,2 0 0,1 5,12A2,2 0 0,1 7,10A2,2 0 0,1 9,12A2,2 0 0,1 7,14M12.65,10C11.83,7.67 9.61,6 7, 6A6, 6 0 0, 0 1, 12A6, 6 0 0, 0 7, 18C9.61, 18 11.83, 16.33 12.65, 14H17V18H21V14H23V10H12.65Z" class="i pk" transform="translate(105.046171875, 48) scale(0.65)"></path><text x="13" y="86" class="tf fk">emp_title_id<tspan x="137.72" class="ty">varchar</tspan></text><text x="13" y="111" class="tf">birth_date<tspan x="137.72" class="ty">date</tspan></text><text x="13" y="136" class="tf">first_name<tspan x="137.72" class="ty">varchar</tspan></text><text x="13" y="161" class="tf">last_name<tspan x="137.72" class="ty">varchar</tspan></text><text x="13" y="186" class="tf">sex<tspan x="137.72" class="ty">varchar</tspan></text><text x="13" y="211" class="tf">hire_date<tspan x="137.72" class="ty">date</tspan></text></svg><svg width="102.04" height="100" x="-11.81" y="230.92" id="h2472833127" class="t"><rect height="40" width="102.04" class="th"></rect><text x="13" y="25" class="tht">salaries</text><rect height="60" width="102.04" class="t-bg" y="40"></rect><text x="13" y="61" class="tf fk">emp_no<tspan x="89.04" class="ty">int</tspan></text><text x="13" y="86" class="tf">salary<tspan x="89.04" class="ty">int</tspan></text></svg><svg width="140.7" height="100" x="-11.36" y="359.09" id="h311790747" class="t"><rect height="40" width="140.7" class="th"></rect><text x="13" y="25" class="tht">titles</text><rect height="60" width="140.7" class="t-bg" y="40"></rect><text x="13" y="61" class="tf pk">title_id<tspan x="127.69999999999999" class="ty">varchar</tspan></text><path d="M7,14A2,2 0 0,1 5,12A2,2 0 0,1 7,10A2,2 0 0,1 9,12A2,2 0 0,1 7,14M12.65,10C11.83,7.67 9.61,6 7, 6A6, 6 0 0, 0 1, 12A6, 6 0 0, 0 7, 18C9.61, 18 11.83, 16.33 12.65, 14H17V18H21V14H23V10H12.65Z" class="i pk" transform="translate(67.68632812499999, 48) scale(0.65)"></path><text x="13" y="86" class="tf">title<tspan x="127.69999999999999" class="ty">varchar</tspan></text></svg></g></g><text class="qdbd-link" x="10" y="20">www.quickdatabasediagrams.com</text></svg>